<svg xmlns="http://www.w3.org/2000/svg" width="50" height="50" fill="none"><path fill="#C3F53C" d="M25 48.7c13.09 0 23.7-10.61 23.7-23.7S38.09 1.3 25 1.3C11.913 1.3 1.3 11.91 1.3 25S11.913 48.7 25 48.7z"/><path fill="#63DE1F" d="M49 24.88V25c0 13.26-10.74 24-24 24-10.32 0-19.14-6.54-22.5-15.72 5.4 3.72 11.94 5.88 19.02 5.88 11.34 0 21.42-5.64 27.48-14.28z"/><path stroke="#002C15" stroke-miterlimit="10" d="M25 48.7c13.09 0 23.7-10.61 23.7-23.7S38.09 1.3 25 1.3C11.913 1.3 1.3 11.91 1.3 25S11.913 48.7 25 48.7z"/><path stroke="#002C15" stroke-linecap="round" stroke-linejoin="round" stroke-width="1.5" d="m25 34-.1-.15c-.695-1.042-1.042-1.563-1.5-1.94a3.999 3.999 0 0 0-1.378-.737C21.453 31 20.827 31 19.575 31H18.2c-1.12 0-1.68 0-2.108-.218a2 2 0 0 1-.874-.874C15 29.48 15 28.92 15 27.8v-8.6c0-1.12 0-1.68.218-2.108a2 2 0 0 1 .874-.874C16.52 16 17.08 16 18.2 16h.4c2.24 0 3.36 0 4.216.436a4 4 0 0 1 1.748 1.748C25 19.04 25 20.16 25 22.4M25 34V22.4M25 34l.1-.15c.695-1.042 1.042-1.563 1.5-1.94a3.999 3.999 0 0 1 1.378-.737C28.547 31 29.173 31 30.425 31H31.8c1.12 0 1.68 0 2.108-.218a2 2 0 0 0 .874-.874C35 29.48 35 28.92 35 27.8v-8.6c0-1.12 0-1.68-.218-2.108a2 2 0 0 0-.874-.874C33.48 16 32.92 16 31.8 16h-.4c-2.24 0-3.36 0-4.216.436a4 4 0 0 0-1.748 1.748C25 19.04 25 20.16 25 22.4"/></svg>